<mxfile host="app.diagrams.net" modified="2025-04-25T21:23:12.373Z" agent="Mozilla/5.0 (Windows NT 10.0; Win64; x64) AppleWebKit/537.36 (KHTML, like Gecko) Chrome/135.0.0.0 Safari/537.36" etag="4jxxp9uUh81VofOwTaNh" version="24.3.1" type="github">
  <diagram name="Page-1" id="55a83fd1-7818-8e21-69c5-c3457e3827bb">
    <mxGraphModel dx="2074" dy="1098" grid="1" gridSize="10" guides="1" tooltips="1" connect="1" arrows="1" fold="1" page="1" pageScale="1" pageWidth="1100" pageHeight="850" background="none" math="0" shadow="0">
      <root>
        <mxCell id="0" />
        <mxCell id="1" parent="0" />
        <mxCell id="qbwaeHTiMsHhiQ-nE1Rq-10" value="" style="whiteSpace=wrap;html=1;aspect=fixed;" vertex="1" parent="1">
          <mxGeometry x="210" width="660" height="660" as="geometry" />
        </mxCell>
        <mxCell id="qbwaeHTiMsHhiQ-nE1Rq-2" value="" style="shape=offPageConnector;whiteSpace=wrap;html=1;direction=west;" vertex="1" parent="1">
          <mxGeometry x="230" y="129.25" width="620" height="500" as="geometry" />
        </mxCell>
        <mxCell id="69ecfefc5c41e42c-1" value="" style="image;html=1;labelBackgroundColor=#ffffff;image=img/lib/clip_art/networking/Wireless_Router_128x128.png;rounded=1;shadow=0;comic=0;strokeWidth=2;fontSize=22" parent="1" vertex="1">
          <mxGeometry x="650" y="220" width="80" height="80" as="geometry" />
        </mxCell>
        <mxCell id="69ecfefc5c41e42c-3" value="Firewall" style="image;html=1;labelBackgroundColor=#ffffff;image=img/lib/clip_art/networking/Firewall_128x128.png;rounded=1;shadow=0;comic=0;strokeWidth=2;fontSize=22;labelPosition=right;verticalLabelPosition=middle;align=left;verticalAlign=middle;" parent="1" vertex="1">
          <mxGeometry x="470" y="220" width="80" height="80" as="geometry" />
        </mxCell>
        <mxCell id="69ecfefc5c41e42c-2" value="Internet" style="image;html=1;labelBackgroundColor=#ffffff;image=img/lib/clip_art/networking/Cloud_128x128.png;rounded=1;shadow=0;comic=0;strokeWidth=2;fontSize=22;labelPosition=center;verticalLabelPosition=top;align=center;verticalAlign=bottom;" parent="1" vertex="1">
          <mxGeometry x="670" y="30" width="80" height="80" as="geometry" />
        </mxCell>
        <mxCell id="69ecfefc5c41e42c-7" value="PC" style="image;html=1;labelBackgroundColor=#ffffff;image=img/lib/clip_art/computers/Workstation_128x128.png;rounded=1;shadow=0;comic=0;strokeWidth=2;fontSize=22" parent="1" vertex="1">
          <mxGeometry x="740" y="370" width="80" height="80" as="geometry" />
        </mxCell>
        <mxCell id="69ecfefc5c41e42c-8" value="Mobile" style="image;html=1;labelBackgroundColor=#ffffff;image=img/lib/clip_art/telecommunication/iPhone_128x128.png;rounded=1;shadow=0;comic=0;strokeWidth=2;fontSize=22" parent="1" vertex="1">
          <mxGeometry x="730" y="500" width="80" height="80" as="geometry" />
        </mxCell>
        <mxCell id="qbwaeHTiMsHhiQ-nE1Rq-6" value="" style="endArrow=classic;html=1;rounded=0;" edge="1" parent="1" source="69ecfefc5c41e42c-3">
          <mxGeometry relative="1" as="geometry">
            <mxPoint x="500" y="450" as="sourcePoint" />
            <mxPoint x="720" y="460" as="targetPoint" />
            <Array as="points">
              <mxPoint x="600" y="400" />
            </Array>
          </mxGeometry>
        </mxCell>
        <mxCell id="qbwaeHTiMsHhiQ-nE1Rq-7" value="User Device Network" style="edgeLabel;resizable=0;html=1;;align=center;verticalAlign=middle;fontSize=14;" connectable="0" vertex="1" parent="qbwaeHTiMsHhiQ-nE1Rq-6">
          <mxGeometry relative="1" as="geometry">
            <mxPoint x="1" as="offset" />
          </mxGeometry>
        </mxCell>
        <mxCell id="qbwaeHTiMsHhiQ-nE1Rq-8" value="" style="endArrow=classic;html=1;rounded=0;" edge="1" parent="1" target="69ecfefc5c41e42c-1">
          <mxGeometry width="50" height="50" relative="1" as="geometry">
            <mxPoint x="687.14" y="120" as="sourcePoint" />
            <mxPoint x="679.9971428571426" y="220" as="targetPoint" />
          </mxGeometry>
        </mxCell>
        <mxCell id="qbwaeHTiMsHhiQ-nE1Rq-9" value="" style="endArrow=classic;html=1;rounded=0;entryX=0.694;entryY=0.06;entryDx=0;entryDy=0;entryPerimeter=0;" edge="1" parent="1">
          <mxGeometry width="50" height="50" relative="1" as="geometry">
            <mxPoint x="640.28" y="280" as="sourcePoint" />
            <mxPoint x="540.0000000000002" y="280" as="targetPoint" />
          </mxGeometry>
        </mxCell>
        <mxCell id="qbwaeHTiMsHhiQ-nE1Rq-12" value="" style="image;html=1;image=img/lib/clip_art/networking/Router_Icon_128x128.png" vertex="1" parent="1">
          <mxGeometry x="430" y="480" width="80" height="80" as="geometry" />
        </mxCell>
        <mxCell id="qbwaeHTiMsHhiQ-nE1Rq-14" value="" style="html=1;verticalLabelPosition=bottom;align=center;labelBackgroundColor=#ffffff;verticalAlign=top;strokeWidth=2;strokeColor=#0080F0;shadow=0;dashed=0;shape=mxgraph.ios7.icons.volume_2;pointerEvents=1" vertex="1" parent="1">
          <mxGeometry x="240" y="500" width="40.3" height="40" as="geometry" />
        </mxCell>
        <mxCell id="qbwaeHTiMsHhiQ-nE1Rq-15" value="" style="html=1;verticalLabelPosition=bottom;align=center;labelBackgroundColor=#ffffff;verticalAlign=top;strokeWidth=2;strokeColor=#0080F0;shadow=0;dashed=0;shape=mxgraph.ios7.icons.video_conversation;" vertex="1" parent="1">
          <mxGeometry x="240.3" y="410" width="40" height="23" as="geometry" />
        </mxCell>
        <mxCell id="qbwaeHTiMsHhiQ-nE1Rq-16" value="" style="html=1;verticalLabelPosition=bottom;align=center;labelBackgroundColor=#ffffff;verticalAlign=top;strokeWidth=2;strokeColor=#0080F0;shadow=0;dashed=0;shape=mxgraph.ios7.icons.monitor;" vertex="1" parent="1">
          <mxGeometry x="290" y="320" width="50" height="39.25" as="geometry" />
        </mxCell>
        <mxCell id="qbwaeHTiMsHhiQ-nE1Rq-17" value="" style="html=1;verticalLabelPosition=bottom;align=center;labelBackgroundColor=#ffffff;verticalAlign=top;strokeWidth=2;strokeColor=#0080F0;shadow=0;dashed=0;shape=mxgraph.ios7.icons.unlocked;" vertex="1" parent="1">
          <mxGeometry x="410" y="290" width="44" height="49.75" as="geometry" />
        </mxCell>
        <mxCell id="qbwaeHTiMsHhiQ-nE1Rq-18" value="" style="html=1;verticalLabelPosition=bottom;align=center;labelBackgroundColor=#ffffff;verticalAlign=top;strokeWidth=2;strokeColor=#0080F0;shadow=0;dashed=0;shape=mxgraph.ios7.icons.stopwatch;" vertex="1" parent="1">
          <mxGeometry x="340" y="560" width="40" height="38.2" as="geometry" />
        </mxCell>
        <mxCell id="qbwaeHTiMsHhiQ-nE1Rq-20" value="Smart Lock" style="text;whiteSpace=wrap;html=1;fontSize=20;" vertex="1" parent="1">
          <mxGeometry x="380" y="339.75" width="110" height="40" as="geometry" />
        </mxCell>
        <mxCell id="qbwaeHTiMsHhiQ-nE1Rq-21" value="Smart TV" style="text;whiteSpace=wrap;html=1;fontSize=22;" vertex="1" parent="1">
          <mxGeometry x="260" y="359.25" width="117" height="40" as="geometry" />
        </mxCell>
        <mxCell id="qbwaeHTiMsHhiQ-nE1Rq-22" value="Smart Cameras" style="text;whiteSpace=wrap;html=1;fontSize=21;" vertex="1" parent="1">
          <mxGeometry x="230" y="433" width="89.85" height="40" as="geometry" />
        </mxCell>
        <mxCell id="qbwaeHTiMsHhiQ-nE1Rq-23" value="Smart Speakers" style="text;whiteSpace=wrap;html=1;fontSize=21;" vertex="1" parent="1">
          <mxGeometry x="230" y="528.2" width="100" height="40" as="geometry" />
        </mxCell>
        <mxCell id="qbwaeHTiMsHhiQ-nE1Rq-24" value="Smart Thermostat" style="text;whiteSpace=wrap;html=1;fontSize=20;" vertex="1" parent="1">
          <mxGeometry x="270" y="598.2" width="170" height="40" as="geometry" />
        </mxCell>
        <mxCell id="qbwaeHTiMsHhiQ-nE1Rq-25" value="Modem/Router" style="text;whiteSpace=wrap;html=1;fontSize=22;" vertex="1" parent="1">
          <mxGeometry x="630" y="299.75" width="155" height="40" as="geometry" />
        </mxCell>
        <mxCell id="qbwaeHTiMsHhiQ-nE1Rq-26" value="" style="endArrow=classic;html=1;rounded=0;" edge="1" parent="1" source="69ecfefc5c41e42c-3" target="qbwaeHTiMsHhiQ-nE1Rq-12">
          <mxGeometry relative="1" as="geometry">
            <mxPoint x="420" y="440" as="sourcePoint" />
            <mxPoint x="520" y="440" as="targetPoint" />
            <Array as="points" />
          </mxGeometry>
        </mxCell>
        <mxCell id="qbwaeHTiMsHhiQ-nE1Rq-27" value="IoT Network" style="edgeLabel;resizable=0;html=1;;align=center;verticalAlign=middle;fontSize=14;" connectable="0" vertex="1" parent="qbwaeHTiMsHhiQ-nE1Rq-26">
          <mxGeometry relative="1" as="geometry" />
        </mxCell>
        <mxCell id="qbwaeHTiMsHhiQ-nE1Rq-32" value="" style="endArrow=classic;html=1;rounded=0;entryX=0.5;entryY=1;entryDx=0;entryDy=0;" edge="1" parent="1" source="qbwaeHTiMsHhiQ-nE1Rq-12" target="qbwaeHTiMsHhiQ-nE1Rq-20">
          <mxGeometry width="50" height="50" relative="1" as="geometry">
            <mxPoint x="520" y="280" as="sourcePoint" />
            <mxPoint x="570" y="230" as="targetPoint" />
          </mxGeometry>
        </mxCell>
        <mxCell id="qbwaeHTiMsHhiQ-nE1Rq-33" value="" style="endArrow=classic;html=1;rounded=0;" edge="1" parent="1" source="qbwaeHTiMsHhiQ-nE1Rq-12" target="qbwaeHTiMsHhiQ-nE1Rq-21">
          <mxGeometry width="50" height="50" relative="1" as="geometry">
            <mxPoint x="520" y="280" as="sourcePoint" />
            <mxPoint x="570" y="230" as="targetPoint" />
          </mxGeometry>
        </mxCell>
        <mxCell id="qbwaeHTiMsHhiQ-nE1Rq-34" value="" style="endArrow=classic;html=1;rounded=0;entryX=1;entryY=0.75;entryDx=0;entryDy=0;" edge="1" parent="1" source="qbwaeHTiMsHhiQ-nE1Rq-12" target="qbwaeHTiMsHhiQ-nE1Rq-22">
          <mxGeometry width="50" height="50" relative="1" as="geometry">
            <mxPoint x="520" y="280" as="sourcePoint" />
            <mxPoint x="570" y="230" as="targetPoint" />
          </mxGeometry>
        </mxCell>
        <mxCell id="qbwaeHTiMsHhiQ-nE1Rq-36" value="" style="endArrow=classic;html=1;rounded=0;entryX=1;entryY=0.5;entryDx=0;entryDy=0;" edge="1" parent="1" source="qbwaeHTiMsHhiQ-nE1Rq-12" target="qbwaeHTiMsHhiQ-nE1Rq-23">
          <mxGeometry width="50" height="50" relative="1" as="geometry">
            <mxPoint x="520" y="280" as="sourcePoint" />
            <mxPoint x="570" y="230" as="targetPoint" />
          </mxGeometry>
        </mxCell>
        <mxCell id="qbwaeHTiMsHhiQ-nE1Rq-37" value="" style="endArrow=classic;html=1;rounded=0;entryX=0.914;entryY=-0.005;entryDx=0;entryDy=0;entryPerimeter=0;" edge="1" parent="1" source="qbwaeHTiMsHhiQ-nE1Rq-12" target="qbwaeHTiMsHhiQ-nE1Rq-24">
          <mxGeometry width="50" height="50" relative="1" as="geometry">
            <mxPoint x="520" y="280" as="sourcePoint" />
            <mxPoint x="570" y="230" as="targetPoint" />
          </mxGeometry>
        </mxCell>
        <mxCell id="qbwaeHTiMsHhiQ-nE1Rq-40" value="Gateway/Hub&lt;div style=&quot;font-size: 22px;&quot;&gt;(Alexa App/device)&lt;/div&gt;" style="text;whiteSpace=wrap;html=1;fontSize=22;" vertex="1" parent="1">
          <mxGeometry x="450" y="550" width="190" height="40" as="geometry" />
        </mxCell>
      </root>
    </mxGraphModel>
  </diagram>
</mxfile>
